<?xml version="1.0" encoding="iso-8859-1"?>
<!-- Uploaded to: SVG Repo, www.svgrepo.com, Generator: SVG Repo Mixer Tools -->
<svg height="800px" width="800px" version="1.1" id="Layer_1" xmlns="http://www.w3.org/2000/svg" xmlns:xlink="http://www.w3.org/1999/xlink" 
	 viewBox="0 0 511.988 511.988" xml:space="preserve">
<path style="fill:#F5F7FA;" d="M255.994,383.99c-49.046,0-97.763-12.608-140.918-36.498c-39.765-22-74.92-53.546-102.076-91.482
	c27.155-37.953,62.311-69.482,102.076-91.498c43.155-23.891,91.873-36.515,140.918-36.515s97.764,12.624,140.918,36.515
	c39.764,22.016,74.92,53.545,102.061,91.498c-27.141,37.937-62.297,69.482-102.061,91.482
	C353.758,371.382,305.039,383.99,255.994,383.99z"/>
<circle style="fill:#ED5564;" cx="255.994" cy="234.664" r="117.33"/>
<path style="fill:#E6E9ED;" d="M255.994,117.342C150.559,117.342,57.202,172.028,0,256.01
	c57.202,83.966,150.559,138.652,255.994,138.652c105.434,0,198.775-54.686,255.994-138.652
	C454.769,172.027,361.428,117.342,255.994,117.342z M448.254,297.383c-17.295,15.875-36.295,29.594-56.514,40.781
	c-20.516,11.359-42.311,20.108-64.732,26.015c-23.094,6.078-46.984,9.156-71.014,9.156c-24.031,0-47.921-3.078-71.014-9.156
	c-22.437-5.906-44.218-14.655-64.733-26.015c-20.218-11.188-39.233-24.906-56.514-40.781c-13.656-12.546-26.233-26.42-37.499-41.373
	c11.266-14.969,23.843-28.844,37.499-41.39c17.281-15.875,36.296-29.593,56.514-40.78c20.515-11.359,42.296-20.109,64.733-26.016
	c23.093-6.078,46.983-9.156,71.014-9.156c24.029,0,47.92,3.078,71.014,9.156c22.422,5.906,44.217,14.656,64.732,26.016
	c20.219,11.188,39.219,24.905,56.514,40.78c13.656,12.546,26.234,26.421,37.5,41.39C474.488,270.963,461.91,284.837,448.254,297.383
	z"/>
<path style="fill:#DA4453;" d="M298.664,234.666c0,23.562-19.109,42.671-42.67,42.671c-23.562,0-42.671-19.108-42.671-42.671
	c0-23.562,19.109-42.67,42.671-42.67C279.555,191.996,298.664,211.104,298.664,234.666z"/>
<path style="fill:#434A54;" d="M511.988,10.672C511.988,4.781,507.207,0,501.316,0c-2.938,0-5.609,1.203-7.531,3.125l0,0
	L3.125,493.785l0,0C1.187,495.723,0,498.379,0,501.332c0,5.891,4.781,10.656,10.671,10.656c2.938,0,5.609-1.188,7.531-3.109l0,0
	l490.66-490.66l0,0C510.801,16.281,511.988,13.625,511.988,10.672z"/>
</svg>